<?xml version="1.0" encoding="UTF-8" standalone="no"?>
<!DOCTYPE svg PUBLIC "-//W3C//DTD SVG 1.1//EN"
 "http://www.w3.org/Graphics/SVG/1.1/DTD/svg11.dtd">
<!-- Generated by graphviz version 2.43.0 (0)
 -->
<!-- Title: snakemake_dag Pages: 1 -->
<svg width="1620pt" height="692pt"
 viewBox="0.00 0.00 1620.00 692.00" xmlns="http://www.w3.org/2000/svg" xmlns:xlink="http://www.w3.org/1999/xlink">
<g id="graph0" class="graph" transform="scale(1 1) rotate(0) translate(4 688)">
<title>snakemake_dag</title>
<polygon fill="white" stroke="transparent" points="-4,4 -4,-688 1616,-688 1616,4 -4,4"/>
<!-- 0 -->
<g id="node1" class="node">
<title>0</title>
<path fill="none" stroke="#d85656" stroke-width="2" d="M974.5,-36C974.5,-36 944.5,-36 944.5,-36 938.5,-36 932.5,-30 932.5,-24 932.5,-24 932.5,-12 932.5,-12 932.5,-6 938.5,0 944.5,0 944.5,0 974.5,0 974.5,0 980.5,0 986.5,-6 986.5,-12 986.5,-12 986.5,-24 986.5,-24 986.5,-30 980.5,-36 974.5,-36"/>
<text text-anchor="middle" x="959.5" y="-15.5" font-family="sans" font-size="10.00">all</text>
</g>
<!-- 1 -->
<g id="node2" class="node">
<title>1</title>
<path fill="none" stroke="#566bd8" stroke-width="2" d="M179,-396C179,-396 12,-396 12,-396 6,-396 0,-390 0,-384 0,-384 0,-372 0,-372 0,-366 6,-360 12,-360 12,-360 179,-360 179,-360 185,-360 191,-366 191,-372 191,-372 191,-384 191,-384 191,-390 185,-396 179,-396"/>
<text text-anchor="middle" x="95.5" y="-375.5" font-family="sans" font-size="10.00">setup_diann_spectral_library_config</text>
</g>
<!-- 1&#45;&gt;0 -->
<g id="edge7" class="edge">
<title>1&#45;&gt;0</title>
<path fill="none" stroke="grey" stroke-width="2" d="M88.62,-359.83C78.68,-333.44 61.5,-281.14 61.5,-235 61.5,-235 61.5,-235 61.5,-161 61.5,-72.44 751.71,-30.02 921.91,-20.9"/>
<polygon fill="grey" stroke="grey" stroke-width="2" points="922.33,-24.39 932.13,-20.36 921.96,-17.4 922.33,-24.39"/>
</g>
<!-- 11 -->
<g id="node12" class="node">
<title>11</title>
<path fill="none" stroke="#97d856" stroke-width="2" d="M251,-324C251,-324 102,-324 102,-324 96,-324 90,-318 90,-312 90,-312 90,-300 90,-300 90,-294 96,-288 102,-288 102,-288 251,-288 251,-288 257,-288 263,-294 263,-300 263,-300 263,-312 263,-312 263,-318 257,-324 251,-324"/>
<text text-anchor="middle" x="176.5" y="-303.5" font-family="sans" font-size="10.00">generate_diann_spectral_library</text>
</g>
<!-- 1&#45;&gt;11 -->
<g id="edge30" class="edge">
<title>1&#45;&gt;11</title>
<path fill="none" stroke="grey" stroke-width="2" d="M115.52,-359.7C125.63,-350.97 138.04,-340.24 149.02,-330.75"/>
<polygon fill="grey" stroke="grey" stroke-width="2" points="151.43,-333.29 156.71,-324.1 146.85,-327.99 151.43,-333.29"/>
</g>
<!-- 2 -->
<g id="node3" class="node">
<title>2</title>
<path fill="none" stroke="#567bd8" stroke-width="2" d="M1183,-108C1183,-108 1076,-108 1076,-108 1070,-108 1064,-102 1064,-96 1064,-96 1064,-84 1064,-84 1064,-78 1070,-72 1076,-72 1076,-72 1183,-72 1183,-72 1189,-72 1195,-78 1195,-84 1195,-84 1195,-96 1195,-96 1195,-102 1189,-108 1183,-108"/>
<text text-anchor="middle" x="1129.5" y="-87.5" font-family="sans" font-size="10.00">setup_diann_run_config</text>
</g>
<!-- 2&#45;&gt;0 -->
<g id="edge9" class="edge">
<title>2&#45;&gt;0</title>
<path fill="none" stroke="grey" stroke-width="2" d="M1087.91,-71.88C1059.81,-60.3 1023.05,-45.17 996.07,-34.06"/>
<polygon fill="grey" stroke="grey" stroke-width="2" points="997.18,-30.73 986.61,-30.16 994.52,-37.2 997.18,-30.73"/>
</g>
<!-- 3 -->
<g id="node4" class="node">
<title>3</title>
<path fill="none" stroke="#d88d56" stroke-width="2" d="M1298,-108C1298,-108 1225,-108 1225,-108 1219,-108 1213,-102 1213,-96 1213,-96 1213,-84 1213,-84 1213,-78 1219,-72 1225,-72 1225,-72 1298,-72 1298,-72 1304,-72 1310,-78 1310,-84 1310,-84 1310,-96 1310,-96 1310,-102 1304,-108 1298,-108"/>
<text text-anchor="middle" x="1261.5" y="-87.5" font-family="sans" font-size="10.00">check_apptainer</text>
</g>
<!-- 3&#45;&gt;0 -->
<g id="edge5" class="edge">
<title>3&#45;&gt;0</title>
<path fill="none" stroke="grey" stroke-width="2" d="M1212.84,-74.46C1209.68,-73.61 1206.55,-72.78 1203.5,-72 1130.71,-53.45 1044.66,-35.73 996.66,-26.21"/>
<polygon fill="grey" stroke="grey" stroke-width="2" points="997.22,-22.76 986.73,-24.26 995.86,-29.62 997.22,-22.76"/>
</g>
<!-- 4 -->
<g id="node5" class="node">
<title>4</title>
<path fill="none" stroke="#d86656" stroke-width="2" d="M1456.5,-108C1456.5,-108 1340.5,-108 1340.5,-108 1334.5,-108 1328.5,-102 1328.5,-96 1328.5,-96 1328.5,-84 1328.5,-84 1328.5,-78 1334.5,-72 1340.5,-72 1340.5,-72 1456.5,-72 1456.5,-72 1462.5,-72 1468.5,-78 1468.5,-84 1468.5,-84 1468.5,-96 1468.5,-96 1468.5,-102 1462.5,-108 1456.5,-108"/>
<text text-anchor="middle" x="1398.5" y="-87.5" font-family="sans" font-size="10.00">build_conduitR_apptainer</text>
</g>
<!-- 4&#45;&gt;0 -->
<g id="edge10" class="edge">
<title>4&#45;&gt;0</title>
<path fill="none" stroke="grey" stroke-width="2" d="M1328.31,-73.82C1325,-73.19 1321.71,-72.58 1318.5,-72 1201.61,-50.97 1062.21,-32.18 996.83,-23.73"/>
<polygon fill="grey" stroke="grey" stroke-width="2" points="996.98,-20.22 986.62,-22.41 996.09,-27.16 996.98,-20.22"/>
</g>
<!-- 5 -->
<g id="node6" class="node">
<title>5</title>
<path fill="none" stroke="#d87d56" stroke-width="2" d="M1600,-108C1600,-108 1499,-108 1499,-108 1493,-108 1487,-102 1487,-96 1487,-96 1487,-84 1487,-84 1487,-78 1493,-72 1499,-72 1499,-72 1600,-72 1600,-72 1606,-72 1612,-78 1612,-84 1612,-84 1612,-96 1612,-96 1612,-102 1606,-108 1600,-108"/>
<text text-anchor="middle" x="1549.5" y="-87.5" font-family="sans" font-size="10.00">build_diann_apptainer</text>
</g>
<!-- 5&#45;&gt;0 -->
<g id="edge11" class="edge">
<title>5&#45;&gt;0</title>
<path fill="none" stroke="grey" stroke-width="2" d="M1486.77,-73.68C1483.64,-73.08 1480.54,-72.51 1477.5,-72 1298.65,-41.87 1081.97,-26.41 996.61,-21.14"/>
<polygon fill="grey" stroke="grey" stroke-width="2" points="996.82,-17.64 986.63,-20.53 996.4,-24.63 996.82,-17.64"/>
</g>
<!-- 6 -->
<g id="node7" class="node">
<title>6</title>
<path fill="none" stroke="#56d89a" stroke-width="2" d="M725,-252C725,-252 602,-252 602,-252 596,-252 590,-246 590,-240 590,-240 590,-228 590,-228 590,-222 596,-216 602,-216 602,-216 725,-216 725,-216 731,-216 737,-222 737,-228 737,-228 737,-240 737,-240 737,-246 731,-252 725,-252"/>
<text text-anchor="middle" x="663.5" y="-231.5" font-family="sans" font-size="10.00">move_database_resources</text>
</g>
<!-- 6&#45;&gt;0 -->
<g id="edge4" class="edge">
<title>6&#45;&gt;0</title>
<path fill="none" stroke="grey" stroke-width="2" d="M664,-215.78C665.23,-196.96 669.31,-166.49 682.5,-144 707.03,-102.16 721.78,-94.95 764.5,-72 815.39,-44.66 881.49,-30.56 922.18,-23.99"/>
<polygon fill="grey" stroke="grey" stroke-width="2" points="922.86,-27.42 932.2,-22.43 921.78,-20.51 922.86,-27.42"/>
</g>
<!-- 22 -->
<g id="node23" class="node">
<title>22</title>
<path fill="none" stroke="#afd856" stroke-width="2" d="M773,-180C773,-180 704,-180 704,-180 698,-180 692,-174 692,-168 692,-168 692,-156 692,-156 692,-150 698,-144 704,-144 704,-144 773,-144 773,-144 779,-144 785,-150 785,-156 785,-156 785,-168 785,-168 785,-174 779,-180 773,-180"/>
<text text-anchor="middle" x="738.5" y="-159.5" font-family="sans" font-size="10.00">extract_metrics</text>
</g>
<!-- 6&#45;&gt;22 -->
<g id="edge41" class="edge">
<title>6&#45;&gt;22</title>
<path fill="none" stroke="grey" stroke-width="2" d="M682.04,-215.7C691.3,-207.05 702.66,-196.45 712.76,-187.03"/>
<polygon fill="grey" stroke="grey" stroke-width="2" points="715.25,-189.49 720.17,-180.1 710.48,-184.37 715.25,-189.49"/>
</g>
<!-- 7 -->
<g id="node8" class="node">
<title>7</title>
<path fill="none" stroke="#70d856" stroke-width="2" d="M579.5,-684C579.5,-684 541.5,-684 541.5,-684 535.5,-684 529.5,-678 529.5,-672 529.5,-672 529.5,-660 529.5,-660 529.5,-654 535.5,-648 541.5,-648 541.5,-648 579.5,-648 579.5,-648 585.5,-648 591.5,-654 591.5,-660 591.5,-660 591.5,-672 591.5,-672 591.5,-678 585.5,-684 579.5,-684"/>
<text text-anchor="middle" x="560.5" y="-663.5" font-family="sans" font-size="10.00">get_fasta</text>
</g>
<!-- 7&#45;&gt;6 -->
<g id="edge17" class="edge">
<title>7&#45;&gt;6</title>
<path fill="none" stroke="grey" stroke-width="2" d="M529.32,-654.87C448.74,-626.87 243.77,-543.1 301.5,-432 352.84,-333.2 407.18,-338.32 506.5,-288 532.67,-274.74 562.9,-263.64 589.81,-255.07"/>
<polygon fill="grey" stroke="grey" stroke-width="2" points="591.05,-258.35 599.56,-252.03 588.97,-251.67 591.05,-258.35"/>
</g>
<!-- 8 -->
<g id="node9" class="node">
<title>8</title>
<path fill="none" stroke="#56d873" stroke-width="2" d="M912.5,-612C912.5,-612 850.5,-612 850.5,-612 844.5,-612 838.5,-606 838.5,-600 838.5,-600 838.5,-588 838.5,-588 838.5,-582 844.5,-576 850.5,-576 850.5,-576 912.5,-576 912.5,-576 918.5,-576 924.5,-582 924.5,-588 924.5,-588 924.5,-600 924.5,-600 924.5,-606 918.5,-612 912.5,-612"/>
<text text-anchor="middle" x="881.5" y="-591.5" font-family="sans" font-size="10.00">get_taxonomy</text>
</g>
<!-- 7&#45;&gt;8 -->
<g id="edge25" class="edge">
<title>7&#45;&gt;8</title>
<path fill="none" stroke="grey" stroke-width="2" d="M591.57,-658.22C646.35,-646.28 760.67,-621.35 828.24,-606.61"/>
<polygon fill="grey" stroke="grey" stroke-width="2" points="829.24,-609.98 838.27,-604.43 827.75,-603.14 829.24,-609.98"/>
</g>
<!-- 9 -->
<g id="node10" class="node">
<title>9</title>
<path fill="none" stroke="#56d863" stroke-width="2" d="M626,-540C626,-540 495,-540 495,-540 489,-540 483,-534 483,-528 483,-528 483,-516 483,-516 483,-510 489,-504 495,-504 495,-504 626,-504 626,-504 632,-504 638,-510 638,-516 638,-516 638,-528 638,-528 638,-534 632,-540 626,-540"/>
<text text-anchor="middle" x="560.5" y="-519.5" font-family="sans" font-size="10.00">get_protein_info_from_fasta</text>
</g>
<!-- 7&#45;&gt;9 -->
<g id="edge26" class="edge">
<title>7&#45;&gt;9</title>
<path fill="none" stroke="grey" stroke-width="2" d="M560.5,-647.87C560.5,-623.67 560.5,-579.21 560.5,-550.39"/>
<polygon fill="grey" stroke="grey" stroke-width="2" points="564,-550.19 560.5,-540.19 557,-550.19 564,-550.19"/>
</g>
<!-- 7&#45;&gt;11 -->
<g id="edge29" class="edge">
<title>7&#45;&gt;11</title>
<path fill="none" stroke="grey" stroke-width="2" d="M529.34,-663.21C462.37,-658.78 307.62,-645.13 268.5,-612 236.42,-584.84 236.5,-565.03 236.5,-523 236.5,-523 236.5,-523 236.5,-449 236.5,-405.72 212.56,-360.45 194.92,-332.98"/>
<polygon fill="grey" stroke="grey" stroke-width="2" points="197.66,-330.78 189.22,-324.38 191.82,-334.65 197.66,-330.78"/>
</g>
<!-- 13 -->
<g id="node14" class="node">
<title>13</title>
<path fill="none" stroke="#d8cb56" stroke-width="2" d="M726.5,-468C726.5,-468 606.5,-468 606.5,-468 600.5,-468 594.5,-462 594.5,-456 594.5,-456 594.5,-444 594.5,-444 594.5,-438 600.5,-432 606.5,-432 606.5,-432 726.5,-432 726.5,-432 732.5,-432 738.5,-438 738.5,-444 738.5,-444 738.5,-456 738.5,-456 738.5,-462 732.5,-468 726.5,-468"/>
<text text-anchor="middle" x="666.5" y="-447.5" font-family="sans" font-size="10.00">extract_detected_proteins</text>
</g>
<!-- 7&#45;&gt;13 -->
<g id="edge32" class="edge">
<title>7&#45;&gt;13</title>
<path fill="none" stroke="grey" stroke-width="2" d="M575.67,-647.67C595.02,-624.65 628.15,-582 646.5,-540 655.1,-520.32 660.2,-496.51 663.1,-478.47"/>
<polygon fill="grey" stroke="grey" stroke-width="2" points="666.59,-478.74 664.59,-468.34 659.67,-477.72 666.59,-478.74"/>
</g>
<!-- 8&#45;&gt;6 -->
<g id="edge21" class="edge">
<title>8&#45;&gt;6</title>
<path fill="none" stroke="grey" stroke-width="2" d="M924.68,-586.44C991.54,-573.56 1112.5,-538.21 1112.5,-451 1112.5,-451 1112.5,-451 1112.5,-377 1112.5,-334.66 1112.03,-313.86 1078.5,-288 1021.97,-244.41 834.84,-261.97 747.14,-251.81"/>
<polygon fill="grey" stroke="grey" stroke-width="2" points="747.58,-248.34 737.2,-250.47 746.64,-255.28 747.58,-248.34"/>
</g>
<!-- 8&#45;&gt;9 -->
<g id="edge27" class="edge">
<title>8&#45;&gt;9</title>
<path fill="none" stroke="grey" stroke-width="2" d="M838.21,-583.56C789.74,-572.99 709.91,-555.58 648.25,-542.14"/>
<polygon fill="grey" stroke="grey" stroke-width="2" points="648.65,-538.64 638.13,-539.93 647.16,-545.48 648.65,-538.64"/>
</g>
<!-- 10 -->
<g id="node11" class="node">
<title>10</title>
<path fill="none" stroke="#56d8a9" stroke-width="2" d="M1000.5,-540C1000.5,-540 908.5,-540 908.5,-540 902.5,-540 896.5,-534 896.5,-528 896.5,-528 896.5,-516 896.5,-516 896.5,-510 902.5,-504 908.5,-504 908.5,-504 1000.5,-504 1000.5,-504 1006.5,-504 1012.5,-510 1012.5,-516 1012.5,-516 1012.5,-528 1012.5,-528 1012.5,-534 1006.5,-540 1000.5,-540"/>
<text text-anchor="middle" x="954.5" y="-519.5" font-family="sans" font-size="10.00">plot_taxonomic_tree</text>
</g>
<!-- 8&#45;&gt;10 -->
<g id="edge28" class="edge">
<title>8&#45;&gt;10</title>
<path fill="none" stroke="grey" stroke-width="2" d="M899.54,-575.7C908.56,-567.05 919.62,-556.45 929.44,-547.03"/>
<polygon fill="grey" stroke="grey" stroke-width="2" points="931.87,-549.55 936.66,-540.1 927.02,-544.5 931.87,-549.55"/>
</g>
<!-- 9&#45;&gt;6 -->
<g id="edge23" class="edge">
<title>9&#45;&gt;6</title>
<path fill="none" stroke="grey" stroke-width="2" d="M561.48,-503.87C564.37,-463.84 575.35,-361.94 614.5,-288 619.98,-277.66 627.98,-267.8 635.94,-259.46"/>
<polygon fill="grey" stroke="grey" stroke-width="2" points="638.55,-261.8 643.16,-252.26 633.61,-256.84 638.55,-261.8"/>
</g>
<!-- 12 -->
<g id="node13" class="node">
<title>12</title>
<path fill="none" stroke="#56d88a" stroke-width="2" d="M488,-468C488,-468 323,-468 323,-468 317,-468 311,-462 311,-456 311,-456 311,-444 311,-444 311,-438 317,-432 323,-432 323,-432 488,-432 488,-432 494,-432 500,-438 500,-444 500,-444 500,-456 500,-456 500,-462 494,-468 488,-468"/>
<text text-anchor="middle" x="405.5" y="-447.5" font-family="sans" font-size="10.00">make_database_resources_readme</text>
</g>
<!-- 9&#45;&gt;12 -->
<g id="edge31" class="edge">
<title>9&#45;&gt;12</title>
<path fill="none" stroke="grey" stroke-width="2" d="M522.58,-503.88C501.49,-494.35 475.04,-482.41 452.63,-472.28"/>
<polygon fill="grey" stroke="grey" stroke-width="2" points="453.85,-468.99 443.29,-468.07 450.97,-475.37 453.85,-468.99"/>
</g>
<!-- 9&#45;&gt;13 -->
<g id="edge33" class="edge">
<title>9&#45;&gt;13</title>
<path fill="none" stroke="grey" stroke-width="2" d="M586.43,-503.88C600.16,-494.81 617.21,-483.55 632.04,-473.76"/>
<polygon fill="grey" stroke="grey" stroke-width="2" points="634.05,-476.62 640.47,-468.19 630.2,-470.78 634.05,-476.62"/>
</g>
<!-- 18 -->
<g id="node19" class="node">
<title>18</title>
<path fill="none" stroke="#56a2d8" stroke-width="2" d="M559.5,-252C559.5,-252 425.5,-252 425.5,-252 419.5,-252 413.5,-246 413.5,-240 413.5,-240 413.5,-228 413.5,-228 413.5,-222 419.5,-216 425.5,-216 425.5,-216 559.5,-216 559.5,-216 565.5,-216 571.5,-222 571.5,-228 571.5,-228 571.5,-240 571.5,-240 571.5,-246 565.5,-252 559.5,-252"/>
<text text-anchor="middle" x="492.5" y="-231.5" font-family="sans" font-size="10.00">process_taxonomic_matrices</text>
</g>
<!-- 9&#45;&gt;18 -->
<g id="edge38" class="edge">
<title>9&#45;&gt;18</title>
<path fill="none" stroke="grey" stroke-width="2" d="M556.45,-503.97C545.09,-456.19 512.86,-320.62 498.98,-262.27"/>
<polygon fill="grey" stroke="grey" stroke-width="2" points="502.33,-261.23 496.61,-252.31 495.52,-262.84 502.33,-261.23"/>
</g>
<!-- 10&#45;&gt;6 -->
<g id="edge20" class="edge">
<title>10&#45;&gt;6</title>
<path fill="none" stroke="grey" stroke-width="2" d="M973.35,-503.77C1016.63,-462.19 1115.01,-354.85 1055.5,-288 1011.42,-238.48 830.49,-260.9 747.32,-251.79"/>
<polygon fill="grey" stroke="grey" stroke-width="2" points="747.58,-248.29 737.21,-250.44 746.66,-255.23 747.58,-248.29"/>
</g>
<!-- 11&#45;&gt;6 -->
<g id="edge15" class="edge">
<title>11&#45;&gt;6</title>
<path fill="none" stroke="grey" stroke-width="2" d="M263.23,-290.12C268.05,-289.38 272.84,-288.67 277.5,-288 408.59,-269.19 444.93,-273.41 579.9,-252.02"/>
<polygon fill="grey" stroke="grey" stroke-width="2" points="580.47,-255.47 589.79,-250.43 579.36,-248.56 580.47,-255.47"/>
</g>
<!-- 12&#45;&gt;6 -->
<g id="edge18" class="edge">
<title>12&#45;&gt;6</title>
<path fill="none" stroke="grey" stroke-width="2" d="M417.52,-431.96C440.63,-400.21 494.13,-331.29 552.5,-288 569.45,-275.43 589.85,-264.67 608.51,-256.19"/>
<polygon fill="grey" stroke="grey" stroke-width="2" points="610.06,-259.33 617.8,-252.09 607.24,-252.93 610.06,-259.33"/>
</g>
<!-- 13&#45;&gt;6 -->
<g id="edge24" class="edge">
<title>13&#45;&gt;6</title>
<path fill="none" stroke="grey" stroke-width="2" d="M655.35,-431.87C637.51,-402.23 606.22,-339.57 623.5,-288 626.85,-278 632.92,-268.38 639.33,-260.14"/>
<polygon fill="grey" stroke="grey" stroke-width="2" points="642.06,-262.33 645.77,-252.4 636.68,-257.85 642.06,-262.33"/>
</g>
<!-- 14 -->
<g id="node15" class="node">
<title>14</title>
<path fill="none" stroke="#88d856" stroke-width="2" d="M816.5,-396C816.5,-396 676.5,-396 676.5,-396 670.5,-396 664.5,-390 664.5,-384 664.5,-384 664.5,-372 664.5,-372 664.5,-366 670.5,-360 676.5,-360 676.5,-360 816.5,-360 816.5,-360 822.5,-360 828.5,-366 828.5,-372 828.5,-372 828.5,-384 828.5,-384 828.5,-390 822.5,-396 816.5,-396"/>
<text text-anchor="middle" x="746.5" y="-375.5" font-family="sans" font-size="10.00">get_annotations_from_uniprot</text>
</g>
<!-- 13&#45;&gt;14 -->
<g id="edge34" class="edge">
<title>13&#45;&gt;14</title>
<path fill="none" stroke="grey" stroke-width="2" d="M686.28,-431.7C696.25,-422.97 708.51,-412.24 719.36,-402.75"/>
<polygon fill="grey" stroke="grey" stroke-width="2" points="721.73,-405.32 726.95,-396.1 717.12,-400.06 721.73,-405.32"/>
</g>
<!-- 14&#45;&gt;6 -->
<g id="edge19" class="edge">
<title>14&#45;&gt;6</title>
<path fill="none" stroke="grey" stroke-width="2" d="M745.86,-359.72C744.46,-340.85 740.07,-310.33 726.5,-288 719.59,-276.63 709.37,-266.52 699.16,-258.25"/>
<polygon fill="grey" stroke="grey" stroke-width="2" points="701.11,-255.34 691.05,-252.04 696.86,-260.9 701.11,-255.34"/>
</g>
<!-- 15 -->
<g id="node16" class="node">
<title>15</title>
<path fill="none" stroke="#bed856" stroke-width="2" d="M1034.5,-324C1034.5,-324 966.5,-324 966.5,-324 960.5,-324 954.5,-318 954.5,-312 954.5,-312 954.5,-300 954.5,-300 954.5,-294 960.5,-288 966.5,-288 966.5,-288 1034.5,-288 1034.5,-288 1040.5,-288 1046.5,-294 1046.5,-300 1046.5,-300 1046.5,-312 1046.5,-312 1046.5,-318 1040.5,-324 1034.5,-324"/>
<text text-anchor="middle" x="1000.5" y="-303.5" font-family="sans" font-size="10.00">extract_go_info</text>
</g>
<!-- 14&#45;&gt;15 -->
<g id="edge35" class="edge">
<title>14&#45;&gt;15</title>
<path fill="none" stroke="grey" stroke-width="2" d="M812.2,-360C850.81,-349.86 900.53,-336.56 944.5,-324 944.6,-323.97 944.7,-323.94 944.8,-323.91"/>
<polygon fill="grey" stroke="grey" stroke-width="2" points="945.76,-327.28 954.39,-321.13 943.81,-320.56 945.76,-327.28"/>
</g>
<!-- 16 -->
<g id="node17" class="node">
<title>16</title>
<path fill="none" stroke="#d8b456" stroke-width="2" d="M924,-324C924,-324 787,-324 787,-324 781,-324 775,-318 775,-312 775,-312 775,-300 775,-300 775,-294 781,-288 787,-288 787,-288 924,-288 924,-288 930,-288 936,-294 936,-300 936,-300 936,-312 936,-312 936,-318 930,-324 924,-324"/>
<text text-anchor="middle" x="855.5" y="-303.5" font-family="sans" font-size="10.00">extract_cellular_location_info</text>
</g>
<!-- 14&#45;&gt;16 -->
<g id="edge36" class="edge">
<title>14&#45;&gt;16</title>
<path fill="none" stroke="grey" stroke-width="2" d="M773.16,-359.88C787.28,-350.81 804.81,-339.55 820.06,-329.76"/>
<polygon fill="grey" stroke="grey" stroke-width="2" points="822.21,-332.54 828.73,-324.19 818.43,-326.65 822.21,-332.54"/>
</g>
<!-- 17 -->
<g id="node18" class="node">
<title>17</title>
<path fill="none" stroke="#61d856" stroke-width="2" d="M706,-324C706,-324 645,-324 645,-324 639,-324 633,-318 633,-312 633,-312 633,-300 633,-300 633,-294 639,-288 645,-288 645,-288 706,-288 706,-288 712,-288 718,-294 718,-300 718,-300 718,-312 718,-312 718,-318 712,-324 706,-324"/>
<text text-anchor="middle" x="675.5" y="-303.5" font-family="sans" font-size="10.00">get_kegg_info</text>
</g>
<!-- 14&#45;&gt;17 -->
<g id="edge37" class="edge">
<title>14&#45;&gt;17</title>
<path fill="none" stroke="grey" stroke-width="2" d="M728.95,-359.7C720.27,-351.14 709.64,-340.66 700.15,-331.3"/>
<polygon fill="grey" stroke="grey" stroke-width="2" points="702.43,-328.63 692.85,-324.1 697.51,-333.62 702.43,-328.63"/>
</g>
<!-- 15&#45;&gt;6 -->
<g id="edge14" class="edge">
<title>15&#45;&gt;6</title>
<path fill="none" stroke="grey" stroke-width="2" d="M954.47,-290.57C951.11,-289.66 947.76,-288.79 944.5,-288 860.62,-267.71 836.03,-268.86 747.22,-252.1"/>
<polygon fill="grey" stroke="grey" stroke-width="2" points="747.73,-248.63 737.25,-250.19 746.41,-255.51 747.73,-248.63"/>
</g>
<!-- 19 -->
<g id="node20" class="node">
<title>19</title>
<path fill="none" stroke="#56c9d8" stroke-width="2" d="M1071,-252C1071,-252 986,-252 986,-252 980,-252 974,-246 974,-240 974,-240 974,-228 974,-228 974,-222 980,-216 986,-216 986,-216 1071,-216 1071,-216 1077,-216 1083,-222 1083,-228 1083,-228 1083,-240 1083,-240 1083,-246 1077,-252 1071,-252"/>
<text text-anchor="middle" x="1028.5" y="-231.5" font-family="sans" font-size="10.00">process_go_matrix</text>
</g>
<!-- 15&#45;&gt;19 -->
<g id="edge39" class="edge">
<title>15&#45;&gt;19</title>
<path fill="none" stroke="grey" stroke-width="2" d="M1007.42,-287.7C1010.57,-279.81 1014.38,-270.3 1017.88,-261.55"/>
<polygon fill="grey" stroke="grey" stroke-width="2" points="1021.19,-262.69 1021.66,-252.1 1014.69,-260.09 1021.19,-262.69"/>
</g>
<!-- 16&#45;&gt;6 -->
<g id="edge16" class="edge">
<title>16&#45;&gt;6</title>
<path fill="none" stroke="grey" stroke-width="2" d="M808.53,-287.88C781.82,-278.14 748.18,-265.87 720.03,-255.61"/>
<polygon fill="grey" stroke="grey" stroke-width="2" points="720.91,-252.21 710.32,-252.07 718.51,-258.78 720.91,-252.21"/>
</g>
<!-- 20 -->
<g id="node21" class="node">
<title>20</title>
<path fill="none" stroke="#56b9d8" stroke-width="2" d="M943.5,-252C943.5,-252 767.5,-252 767.5,-252 761.5,-252 755.5,-246 755.5,-240 755.5,-240 755.5,-228 755.5,-228 755.5,-222 761.5,-216 767.5,-216 767.5,-216 943.5,-216 943.5,-216 949.5,-216 955.5,-222 955.5,-228 955.5,-228 955.5,-240 955.5,-240 955.5,-246 949.5,-252 943.5,-252"/>
<text text-anchor="middle" x="855.5" y="-231.5" font-family="sans" font-size="10.00">process_subcellular_locations_matrix</text>
</g>
<!-- 16&#45;&gt;20 -->
<g id="edge40" class="edge">
<title>16&#45;&gt;20</title>
<path fill="none" stroke="grey" stroke-width="2" d="M855.5,-287.7C855.5,-279.98 855.5,-270.71 855.5,-262.11"/>
<polygon fill="grey" stroke="grey" stroke-width="2" points="859,-262.1 855.5,-252.1 852,-262.1 859,-262.1"/>
</g>
<!-- 17&#45;&gt;6 -->
<g id="edge22" class="edge">
<title>17&#45;&gt;6</title>
<path fill="none" stroke="grey" stroke-width="2" d="M672.53,-287.7C671.21,-279.98 669.62,-270.71 668.15,-262.11"/>
<polygon fill="grey" stroke="grey" stroke-width="2" points="671.57,-261.37 666.43,-252.1 664.67,-262.55 671.57,-261.37"/>
</g>
<!-- 18&#45;&gt;0 -->
<g id="edge1" class="edge">
<title>18&#45;&gt;0</title>
<path fill="none" stroke="grey" stroke-width="2" d="M509.62,-215.8C543.82,-182.5 624.36,-109.25 706.5,-72 778.62,-39.3 871.51,-26.5 922.28,-21.7"/>
<polygon fill="grey" stroke="grey" stroke-width="2" points="922.81,-25.17 932.46,-20.79 922.18,-18.19 922.81,-25.17"/>
</g>
<!-- 23 -->
<g id="node24" class="node">
<title>23</title>
<path fill="none" stroke="#56d8c1" stroke-width="2" d="M933,-180C933,-180 888,-180 888,-180 882,-180 876,-174 876,-168 876,-168 876,-156 876,-156 876,-150 882,-144 888,-144 888,-144 933,-144 933,-144 939,-144 945,-150 945,-156 945,-156 945,-168 945,-168 945,-174 939,-180 933,-180"/>
<text text-anchor="middle" x="910.5" y="-159.5" font-family="sans" font-size="10.00">prepare_qf</text>
</g>
<!-- 18&#45;&gt;23 -->
<g id="edge43" class="edge">
<title>18&#45;&gt;23</title>
<path fill="none" stroke="grey" stroke-width="2" d="M571.63,-217.59C574.62,-217.05 577.59,-216.51 580.5,-216 682.26,-198 802.14,-179.4 865.68,-169.74"/>
<polygon fill="grey" stroke="grey" stroke-width="2" points="866.39,-173.17 875.76,-168.21 865.34,-166.25 866.39,-173.17"/>
</g>
<!-- 19&#45;&gt;0 -->
<g id="edge13" class="edge">
<title>19&#45;&gt;0</title>
<path fill="none" stroke="grey" stroke-width="2" d="M1022.97,-215.85C1010.98,-178.68 982.53,-90.44 968.15,-45.82"/>
<polygon fill="grey" stroke="grey" stroke-width="2" points="971.46,-44.68 965.06,-36.23 964.79,-46.82 971.46,-44.68"/>
</g>
<!-- 19&#45;&gt;23 -->
<g id="edge45" class="edge">
<title>19&#45;&gt;23</title>
<path fill="none" stroke="grey" stroke-width="2" d="M999.63,-215.88C984.21,-206.72 965.02,-195.34 948.4,-185.48"/>
<polygon fill="grey" stroke="grey" stroke-width="2" points="949.86,-182.28 939.48,-180.19 946.29,-188.3 949.86,-182.28"/>
</g>
<!-- 20&#45;&gt;0 -->
<g id="edge2" class="edge">
<title>20&#45;&gt;0</title>
<path fill="none" stroke="grey" stroke-width="2" d="M846.02,-215.81C830.12,-184.41 802.6,-116.88 832.5,-72 852.35,-42.21 892.47,-29.13 922.33,-23.41"/>
<polygon fill="grey" stroke="grey" stroke-width="2" points="923.15,-26.82 932.42,-21.68 921.97,-19.93 923.15,-26.82"/>
</g>
<!-- 20&#45;&gt;23 -->
<g id="edge42" class="edge">
<title>20&#45;&gt;23</title>
<path fill="none" stroke="grey" stroke-width="2" d="M869.1,-215.7C875.62,-207.39 883.57,-197.28 890.75,-188.14"/>
<polygon fill="grey" stroke="grey" stroke-width="2" points="893.63,-190.13 897.06,-180.1 888.13,-185.81 893.63,-190.13"/>
</g>
<!-- 21 -->
<g id="node22" class="node">
<title>21</title>
<path fill="none" stroke="#56d8d0" stroke-width="2" d="M1223.5,-252C1223.5,-252 1113.5,-252 1113.5,-252 1107.5,-252 1101.5,-246 1101.5,-240 1101.5,-240 1101.5,-228 1101.5,-228 1101.5,-222 1107.5,-216 1113.5,-216 1113.5,-216 1223.5,-216 1223.5,-216 1229.5,-216 1235.5,-222 1235.5,-228 1235.5,-228 1235.5,-240 1235.5,-240 1235.5,-246 1229.5,-252 1223.5,-252"/>
<text text-anchor="middle" x="1168.5" y="-231.5" font-family="sans" font-size="10.00">process_diann_matrices</text>
</g>
<!-- 21&#45;&gt;0 -->
<g id="edge12" class="edge">
<title>21&#45;&gt;0</title>
<path fill="none" stroke="grey" stroke-width="2" d="M1151.75,-215.85C1114.83,-178.05 1026.35,-87.45 983.53,-43.6"/>
<polygon fill="grey" stroke="grey" stroke-width="2" points="985.82,-40.94 976.33,-36.23 980.81,-45.83 985.82,-40.94"/>
</g>
<!-- 21&#45;&gt;23 -->
<g id="edge44" class="edge">
<title>21&#45;&gt;23</title>
<path fill="none" stroke="grey" stroke-width="2" d="M1105.72,-215.97C1059.14,-203.33 996.77,-186.41 955.19,-175.12"/>
<polygon fill="grey" stroke="grey" stroke-width="2" points="955.91,-171.7 945.35,-172.45 954.08,-178.45 955.91,-171.7"/>
</g>
<!-- 22&#45;&gt;0 -->
<g id="edge3" class="edge">
<title>22&#45;&gt;0</title>
<path fill="none" stroke="grey" stroke-width="2" d="M746.08,-143.74C755.72,-123.72 774.2,-91.03 799.5,-72 836.06,-44.5 887.63,-30.82 922.25,-24.34"/>
<polygon fill="grey" stroke="grey" stroke-width="2" points="923.17,-27.73 932.41,-22.55 921.96,-20.84 923.17,-27.73"/>
</g>
<!-- 24 -->
<g id="node25" class="node">
<title>24</title>
<path fill="none" stroke="#d8a456" stroke-width="2" d="M919,-108C919,-108 854,-108 854,-108 848,-108 842,-102 842,-96 842,-96 842,-84 842,-84 842,-78 848,-72 854,-72 854,-72 919,-72 919,-72 925,-72 931,-78 931,-84 931,-84 931,-96 931,-96 931,-102 925,-108 919,-108"/>
<text text-anchor="middle" x="886.5" y="-87.5" font-family="sans" font-size="10.00">create_conduit</text>
</g>
<!-- 22&#45;&gt;24 -->
<g id="edge46" class="edge">
<title>22&#45;&gt;24</title>
<path fill="none" stroke="grey" stroke-width="2" d="M774.7,-143.88C794.76,-134.39 819.87,-122.51 841.21,-112.42"/>
<polygon fill="grey" stroke="grey" stroke-width="2" points="842.87,-115.51 850.41,-108.07 839.88,-109.18 842.87,-115.51"/>
</g>
<!-- 23&#45;&gt;0 -->
<g id="edge8" class="edge">
<title>23&#45;&gt;0</title>
<path fill="none" stroke="grey" stroke-width="2" d="M921.44,-143.92C927.51,-133.81 934.76,-120.56 939.5,-108 947.08,-87.91 952.24,-64.12 955.42,-46.2"/>
<polygon fill="grey" stroke="grey" stroke-width="2" points="958.91,-46.58 957.11,-36.14 952,-45.43 958.91,-46.58"/>
</g>
<!-- 23&#45;&gt;24 -->
<g id="edge47" class="edge">
<title>23&#45;&gt;24</title>
<path fill="none" stroke="grey" stroke-width="2" d="M904.57,-143.7C901.89,-135.9 898.67,-126.51 895.7,-117.83"/>
<polygon fill="grey" stroke="grey" stroke-width="2" points="898.92,-116.43 892.36,-108.1 892.3,-118.7 898.92,-116.43"/>
</g>
<!-- 24&#45;&gt;0 -->
<g id="edge6" class="edge">
<title>24&#45;&gt;0</title>
<path fill="none" stroke="grey" stroke-width="2" d="M904.54,-71.7C913.56,-63.05 924.62,-52.45 934.44,-43.03"/>
<polygon fill="grey" stroke="grey" stroke-width="2" points="936.87,-45.55 941.66,-36.1 932.02,-40.5 936.87,-45.55"/>
</g>
</g>
</svg>
